<?xml version="1.0" encoding="utf-8" standalone="no"?>
<!DOCTYPE svg PUBLIC "-//W3C//DTD SVG 1.1//EN"
  "http://www.w3.org/Graphics/SVG/1.1/DTD/svg11.dtd">
<svg xmlns:xlink="http://www.w3.org/1999/xlink" width="460.8pt" height="345.6pt" viewBox="0 0 460.8 345.6" xmlns="http://www.w3.org/2000/svg" version="1.1">
 <metadata>
  <rdf:RDF xmlns:dc="http://purl.org/dc/elements/1.1/" xmlns:cc="http://creativecommons.org/ns#" xmlns:rdf="http://www.w3.org/1999/02/22-rdf-syntax-ns#">
   <cc:Work>
    <dc:type rdf:resource="http://purl.org/dc/dcmitype/StillImage"/>
    <dc:date>2024-09-05T13:56:08.908462</dc:date>
    <dc:format>image/svg+xml</dc:format>
    <dc:creator>
     <cc:Agent>
      <dc:title>Matplotlib v3.7.2, https://matplotlib.org/</dc:title>
     </cc:Agent>
    </dc:creator>
   </cc:Work>
  </rdf:RDF>
 </metadata>
 <defs>
  <style type="text/css">*{stroke-linejoin: round; stroke-linecap: butt}</style>
 </defs>
 <g id="figure_1">
  <g id="patch_1">
   <path d="M 0 345.6 
L 460.8 345.6 
L 460.8 0 
L 0 0 
z
" style="fill: #ffffff"/>
  </g>
  <g id="axes_1">
   <g id="patch_2">
    <path d="M 50.25 306.42 
L 443.61 306.42 
L 443.61 10.8 
L 50.25 10.8 
z
" style="fill: #ffffff"/>
   </g>
   <g id="matplotlib.axis_1">
    <g id="xtick_1">
     <g id="line2d_1">
      <defs>
       <path id="m80f2a4c6ce" d="M 0 0 
L 0 -3.5 
" style="stroke: #000000; stroke-width: 0.8"/>
      </defs>
      <g>
       <use xlink:href="#m80f2a4c6ce" x="50.25" y="306.42" style="stroke: #000000; stroke-width: 0.8"/>
      </g>
     </g>
     <g id="text_1">
      <!-- 0 -->
      <g transform="translate(47.06875 317.518437) scale(0.1 -0.1)">
       <defs>
        <path id="DejaVuSans-30" d="M 2034 4250 
Q 1547 4250 1301 3770 
Q 1056 3291 1056 2328 
Q 1056 1369 1301 889 
Q 1547 409 2034 409 
Q 2525 409 2770 889 
Q 3016 1369 3016 2328 
Q 3016 3291 2770 3770 
Q 2525 4250 2034 4250 
z
M 2034 4750 
Q 2819 4750 3233 4129 
Q 3647 3509 3647 2328 
Q 3647 1150 3233 529 
Q 2819 -91 2034 -91 
Q 1250 -91 836 529 
Q 422 1150 422 2328 
Q 422 3509 836 4129 
Q 1250 4750 2034 4750 
z
" transform="scale(0.015625)"/>
       </defs>
       <use xlink:href="#DejaVuSans-30"/>
      </g>
     </g>
    </g>
    <g id="xtick_2">
     <g id="line2d_2">
      <g>
       <use xlink:href="#m80f2a4c6ce" x="128.922" y="306.42" style="stroke: #000000; stroke-width: 0.8"/>
      </g>
     </g>
     <g id="text_2">
      <!-- 10 -->
      <g transform="translate(122.5595 317.518437) scale(0.1 -0.1)">
       <defs>
        <path id="DejaVuSans-31" d="M 794 531 
L 1825 531 
L 1825 4091 
L 703 3866 
L 703 4441 
L 1819 4666 
L 2450 4666 
L 2450 531 
L 3481 531 
L 3481 0 
L 794 0 
L 794 531 
z
" transform="scale(0.015625)"/>
       </defs>
       <use xlink:href="#DejaVuSans-31"/>
       <use xlink:href="#DejaVuSans-30" x="63.623047"/>
      </g>
     </g>
    </g>
    <g id="xtick_3">
     <g id="line2d_3">
      <g>
       <use xlink:href="#m80f2a4c6ce" x="207.594" y="306.42" style="stroke: #000000; stroke-width: 0.8"/>
      </g>
     </g>
     <g id="text_3">
      <!-- 20 -->
      <g transform="translate(201.2315 317.518437) scale(0.1 -0.1)">
       <defs>
        <path id="DejaVuSans-32" d="M 1228 531 
L 3431 531 
L 3431 0 
L 469 0 
L 469 531 
Q 828 903 1448 1529 
Q 2069 2156 2228 2338 
Q 2531 2678 2651 2914 
Q 2772 3150 2772 3378 
Q 2772 3750 2511 3984 
Q 2250 4219 1831 4219 
Q 1534 4219 1204 4116 
Q 875 4013 500 3803 
L 500 4441 
Q 881 4594 1212 4672 
Q 1544 4750 1819 4750 
Q 2544 4750 2975 4387 
Q 3406 4025 3406 3419 
Q 3406 3131 3298 2873 
Q 3191 2616 2906 2266 
Q 2828 2175 2409 1742 
Q 1991 1309 1228 531 
z
" transform="scale(0.015625)"/>
       </defs>
       <use xlink:href="#DejaVuSans-32"/>
       <use xlink:href="#DejaVuSans-30" x="63.623047"/>
      </g>
     </g>
    </g>
    <g id="xtick_4">
     <g id="line2d_4">
      <g>
       <use xlink:href="#m80f2a4c6ce" x="286.266" y="306.42" style="stroke: #000000; stroke-width: 0.8"/>
      </g>
     </g>
     <g id="text_4">
      <!-- 30 -->
      <g transform="translate(279.9035 317.518437) scale(0.1 -0.1)">
       <defs>
        <path id="DejaVuSans-33" d="M 2597 2516 
Q 3050 2419 3304 2112 
Q 3559 1806 3559 1356 
Q 3559 666 3084 287 
Q 2609 -91 1734 -91 
Q 1441 -91 1130 -33 
Q 819 25 488 141 
L 488 750 
Q 750 597 1062 519 
Q 1375 441 1716 441 
Q 2309 441 2620 675 
Q 2931 909 2931 1356 
Q 2931 1769 2642 2001 
Q 2353 2234 1838 2234 
L 1294 2234 
L 1294 2753 
L 1863 2753 
Q 2328 2753 2575 2939 
Q 2822 3125 2822 3475 
Q 2822 3834 2567 4026 
Q 2313 4219 1838 4219 
Q 1578 4219 1281 4162 
Q 984 4106 628 3988 
L 628 4550 
Q 988 4650 1302 4700 
Q 1616 4750 1894 4750 
Q 2613 4750 3031 4423 
Q 3450 4097 3450 3541 
Q 3450 3153 3228 2886 
Q 3006 2619 2597 2516 
z
" transform="scale(0.015625)"/>
       </defs>
       <use xlink:href="#DejaVuSans-33"/>
       <use xlink:href="#DejaVuSans-30" x="63.623047"/>
      </g>
     </g>
    </g>
    <g id="xtick_5">
     <g id="line2d_5">
      <g>
       <use xlink:href="#m80f2a4c6ce" x="364.938" y="306.42" style="stroke: #000000; stroke-width: 0.8"/>
      </g>
     </g>
     <g id="text_5">
      <!-- 40 -->
      <g transform="translate(358.5755 317.518437) scale(0.1 -0.1)">
       <defs>
        <path id="DejaVuSans-34" d="M 2419 4116 
L 825 1625 
L 2419 1625 
L 2419 4116 
z
M 2253 4666 
L 3047 4666 
L 3047 1625 
L 3713 1625 
L 3713 1100 
L 3047 1100 
L 3047 0 
L 2419 0 
L 2419 1100 
L 313 1100 
L 313 1709 
L 2253 4666 
z
" transform="scale(0.015625)"/>
       </defs>
       <use xlink:href="#DejaVuSans-34"/>
       <use xlink:href="#DejaVuSans-30" x="63.623047"/>
      </g>
     </g>
    </g>
    <g id="xtick_6">
     <g id="line2d_6">
      <g>
       <use xlink:href="#m80f2a4c6ce" x="443.61" y="306.42" style="stroke: #000000; stroke-width: 0.8"/>
      </g>
     </g>
     <g id="text_6">
      <!-- 50 -->
      <g transform="translate(437.2475 317.518437) scale(0.1 -0.1)">
       <defs>
        <path id="DejaVuSans-35" d="M 691 4666 
L 3169 4666 
L 3169 4134 
L 1269 4134 
L 1269 2991 
Q 1406 3038 1543 3061 
Q 1681 3084 1819 3084 
Q 2600 3084 3056 2656 
Q 3513 2228 3513 1497 
Q 3513 744 3044 326 
Q 2575 -91 1722 -91 
Q 1428 -91 1123 -41 
Q 819 9 494 109 
L 494 744 
Q 775 591 1075 516 
Q 1375 441 1709 441 
Q 2250 441 2565 725 
Q 2881 1009 2881 1497 
Q 2881 1984 2565 2268 
Q 2250 2553 1709 2553 
Q 1456 2553 1204 2497 
Q 953 2441 691 2322 
L 691 4666 
z
" transform="scale(0.015625)"/>
       </defs>
       <use xlink:href="#DejaVuSans-35"/>
       <use xlink:href="#DejaVuSans-30" x="63.623047"/>
      </g>
     </g>
    </g>
    <g id="text_7">
     <!-- Iteração -->
     <g transform="translate(222.325312 332.73875) scale(0.12 -0.12)">
      <defs>
       <path id="DejaVuSans-49" d="M 628 4666 
L 1259 4666 
L 1259 0 
L 628 0 
L 628 4666 
z
" transform="scale(0.015625)"/>
       <path id="DejaVuSans-74" d="M 1172 4494 
L 1172 3500 
L 2356 3500 
L 2356 3053 
L 1172 3053 
L 1172 1153 
Q 1172 725 1289 603 
Q 1406 481 1766 481 
L 2356 481 
L 2356 0 
L 1766 0 
Q 1100 0 847 248 
Q 594 497 594 1153 
L 594 3053 
L 172 3053 
L 172 3500 
L 594 3500 
L 594 4494 
L 1172 4494 
z
" transform="scale(0.015625)"/>
       <path id="DejaVuSans-65" d="M 3597 1894 
L 3597 1613 
L 953 1613 
Q 991 1019 1311 708 
Q 1631 397 2203 397 
Q 2534 397 2845 478 
Q 3156 559 3463 722 
L 3463 178 
Q 3153 47 2828 -22 
Q 2503 -91 2169 -91 
Q 1331 -91 842 396 
Q 353 884 353 1716 
Q 353 2575 817 3079 
Q 1281 3584 2069 3584 
Q 2775 3584 3186 3129 
Q 3597 2675 3597 1894 
z
M 3022 2063 
Q 3016 2534 2758 2815 
Q 2500 3097 2075 3097 
Q 1594 3097 1305 2825 
Q 1016 2553 972 2059 
L 3022 2063 
z
" transform="scale(0.015625)"/>
       <path id="DejaVuSans-72" d="M 2631 2963 
Q 2534 3019 2420 3045 
Q 2306 3072 2169 3072 
Q 1681 3072 1420 2755 
Q 1159 2438 1159 1844 
L 1159 0 
L 581 0 
L 581 3500 
L 1159 3500 
L 1159 2956 
Q 1341 3275 1631 3429 
Q 1922 3584 2338 3584 
Q 2397 3584 2469 3576 
Q 2541 3569 2628 3553 
L 2631 2963 
z
" transform="scale(0.015625)"/>
       <path id="DejaVuSans-61" d="M 2194 1759 
Q 1497 1759 1228 1600 
Q 959 1441 959 1056 
Q 959 750 1161 570 
Q 1363 391 1709 391 
Q 2188 391 2477 730 
Q 2766 1069 2766 1631 
L 2766 1759 
L 2194 1759 
z
M 3341 1997 
L 3341 0 
L 2766 0 
L 2766 531 
Q 2569 213 2275 61 
Q 1981 -91 1556 -91 
Q 1019 -91 701 211 
Q 384 513 384 1019 
Q 384 1609 779 1909 
Q 1175 2209 1959 2209 
L 2766 2209 
L 2766 2266 
Q 2766 2663 2505 2880 
Q 2244 3097 1772 3097 
Q 1472 3097 1187 3025 
Q 903 2953 641 2809 
L 641 3341 
Q 956 3463 1253 3523 
Q 1550 3584 1831 3584 
Q 2591 3584 2966 3190 
Q 3341 2797 3341 1997 
z
" transform="scale(0.015625)"/>
       <path id="DejaVuSans-e7" d="M 3122 3366 
L 3122 2828 
Q 2878 2963 2633 3030 
Q 2388 3097 2138 3097 
Q 1578 3097 1268 2742 
Q 959 2388 959 1747 
Q 959 1106 1268 751 
Q 1578 397 2138 397 
Q 2388 397 2633 464 
Q 2878 531 3122 666 
L 3122 134 
Q 2881 22 2623 -34 
Q 2366 -91 2075 -91 
Q 1284 -91 818 406 
Q 353 903 353 1747 
Q 353 2603 823 3093 
Q 1294 3584 2113 3584 
Q 2378 3584 2631 3529 
Q 2884 3475 3122 3366 
z
M 2309 0 
Q 2481 -194 2565 -358 
Q 2650 -522 2650 -672 
Q 2650 -950 2462 -1092 
Q 2275 -1234 1906 -1234 
Q 1763 -1234 1627 -1215 
Q 1491 -1197 1356 -1159 
L 1356 -750 
Q 1463 -803 1578 -826 
Q 1694 -850 1841 -850 
Q 2025 -850 2119 -775 
Q 2213 -700 2213 -556 
Q 2213 -463 2145 -327 
Q 2078 -191 1938 0 
L 2309 0 
z
" transform="scale(0.015625)"/>
       <path id="DejaVuSans-e3" d="M 2194 1759 
Q 1497 1759 1228 1600 
Q 959 1441 959 1056 
Q 959 750 1161 570 
Q 1363 391 1709 391 
Q 2188 391 2477 730 
Q 2766 1069 2766 1631 
L 2766 1759 
L 2194 1759 
z
M 3341 1997 
L 3341 0 
L 2766 0 
L 2766 531 
Q 2569 213 2275 61 
Q 1981 -91 1556 -91 
Q 1019 -91 701 211 
Q 384 513 384 1019 
Q 384 1609 779 1909 
Q 1175 2209 1959 2209 
L 2766 2209 
L 2766 2266 
Q 2766 2663 2505 2880 
Q 2244 3097 1772 3097 
Q 1472 3097 1187 3025 
Q 903 2953 641 2809 
L 641 3341 
Q 956 3463 1253 3523 
Q 1550 3584 1831 3584 
Q 2591 3584 2966 3190 
Q 3341 2797 3341 1997 
z
M 1844 4281 
L 1666 4453 
Q 1597 4516 1545 4545 
Q 1494 4575 1453 4575 
Q 1334 4575 1278 4461 
Q 1222 4347 1216 4091 
L 825 4091 
Q 831 4513 990 4742 
Q 1150 4972 1434 4972 
Q 1553 4972 1653 4928 
Q 1753 4884 1869 4781 
L 2047 4609 
Q 2116 4547 2167 4517 
Q 2219 4488 2259 4488 
Q 2378 4488 2434 4602 
Q 2491 4716 2497 4972 
L 2888 4972 
Q 2881 4550 2722 4320 
Q 2563 4091 2278 4091 
Q 2159 4091 2059 4134 
Q 1959 4178 1844 4281 
z
" transform="scale(0.015625)"/>
       <path id="DejaVuSans-6f" d="M 1959 3097 
Q 1497 3097 1228 2736 
Q 959 2375 959 1747 
Q 959 1119 1226 758 
Q 1494 397 1959 397 
Q 2419 397 2687 759 
Q 2956 1122 2956 1747 
Q 2956 2369 2687 2733 
Q 2419 3097 1959 3097 
z
M 1959 3584 
Q 2709 3584 3137 3096 
Q 3566 2609 3566 1747 
Q 3566 888 3137 398 
Q 2709 -91 1959 -91 
Q 1206 -91 779 398 
Q 353 888 353 1747 
Q 353 2609 779 3096 
Q 1206 3584 1959 3584 
z
" transform="scale(0.015625)"/>
      </defs>
      <use xlink:href="#DejaVuSans-49"/>
      <use xlink:href="#DejaVuSans-74" x="29.492188"/>
      <use xlink:href="#DejaVuSans-65" x="68.701172"/>
      <use xlink:href="#DejaVuSans-72" x="130.224609"/>
      <use xlink:href="#DejaVuSans-61" x="171.337891"/>
      <use xlink:href="#DejaVuSans-e7" x="232.617188"/>
      <use xlink:href="#DejaVuSans-e3" x="287.597656"/>
      <use xlink:href="#DejaVuSans-6f" x="348.876953"/>
     </g>
    </g>
   </g>
   <g id="matplotlib.axis_2">
    <g id="ytick_1">
     <g id="line2d_7">
      <defs>
       <path id="mabdb6bfdba" d="M 0 0 
L 3.5 0 
" style="stroke: #000000; stroke-width: 0.8"/>
      </defs>
      <g>
       <use xlink:href="#mabdb6bfdba" x="50.25" y="292.982727" style="stroke: #000000; stroke-width: 0.8"/>
      </g>
     </g>
     <g id="text_8">
      <!-- −20 -->
      <g transform="translate(25.645313 296.781946) scale(0.1 -0.1)">
       <defs>
        <path id="DejaVuSans-2212" d="M 678 2272 
L 4684 2272 
L 4684 1741 
L 678 1741 
L 678 2272 
z
" transform="scale(0.015625)"/>
       </defs>
       <use xlink:href="#DejaVuSans-2212"/>
       <use xlink:href="#DejaVuSans-32" x="83.789062"/>
       <use xlink:href="#DejaVuSans-30" x="147.412109"/>
      </g>
     </g>
    </g>
    <g id="ytick_2">
     <g id="line2d_8">
      <g>
       <use xlink:href="#mabdb6bfdba" x="50.25" y="259.389545" style="stroke: #000000; stroke-width: 0.8"/>
      </g>
     </g>
     <g id="text_9">
      <!-- −15 -->
      <g transform="translate(25.645313 263.188764) scale(0.1 -0.1)">
       <use xlink:href="#DejaVuSans-2212"/>
       <use xlink:href="#DejaVuSans-31" x="83.789062"/>
       <use xlink:href="#DejaVuSans-35" x="147.412109"/>
      </g>
     </g>
    </g>
    <g id="ytick_3">
     <g id="line2d_9">
      <g>
       <use xlink:href="#mabdb6bfdba" x="50.25" y="225.796364" style="stroke: #000000; stroke-width: 0.8"/>
      </g>
     </g>
     <g id="text_10">
      <!-- −10 -->
      <g transform="translate(25.645313 229.595582) scale(0.1 -0.1)">
       <use xlink:href="#DejaVuSans-2212"/>
       <use xlink:href="#DejaVuSans-31" x="83.789062"/>
       <use xlink:href="#DejaVuSans-30" x="147.412109"/>
      </g>
     </g>
    </g>
    <g id="ytick_4">
     <g id="line2d_10">
      <g>
       <use xlink:href="#mabdb6bfdba" x="50.25" y="192.203182" style="stroke: #000000; stroke-width: 0.8"/>
      </g>
     </g>
     <g id="text_11">
      <!-- −5 -->
      <g transform="translate(32.007813 196.002401) scale(0.1 -0.1)">
       <use xlink:href="#DejaVuSans-2212"/>
       <use xlink:href="#DejaVuSans-35" x="83.789062"/>
      </g>
     </g>
    </g>
    <g id="ytick_5">
     <g id="line2d_11">
      <g>
       <use xlink:href="#mabdb6bfdba" x="50.25" y="158.61" style="stroke: #000000; stroke-width: 0.8"/>
      </g>
     </g>
     <g id="text_12">
      <!-- 0 -->
      <g transform="translate(40.3875 162.409219) scale(0.1 -0.1)">
       <use xlink:href="#DejaVuSans-30"/>
      </g>
     </g>
    </g>
    <g id="ytick_6">
     <g id="line2d_12">
      <g>
       <use xlink:href="#mabdb6bfdba" x="50.25" y="125.016818" style="stroke: #000000; stroke-width: 0.8"/>
      </g>
     </g>
     <g id="text_13">
      <!-- 5 -->
      <g transform="translate(40.3875 128.816037) scale(0.1 -0.1)">
       <use xlink:href="#DejaVuSans-35"/>
      </g>
     </g>
    </g>
    <g id="ytick_7">
     <g id="line2d_13">
      <g>
       <use xlink:href="#mabdb6bfdba" x="50.25" y="91.423636" style="stroke: #000000; stroke-width: 0.8"/>
      </g>
     </g>
     <g id="text_14">
      <!-- 10 -->
      <g transform="translate(34.025 95.222855) scale(0.1 -0.1)">
       <use xlink:href="#DejaVuSans-31"/>
       <use xlink:href="#DejaVuSans-30" x="63.623047"/>
      </g>
     </g>
    </g>
    <g id="ytick_8">
     <g id="line2d_14">
      <g>
       <use xlink:href="#mabdb6bfdba" x="50.25" y="57.830455" style="stroke: #000000; stroke-width: 0.8"/>
      </g>
     </g>
     <g id="text_15">
      <!-- 15 -->
      <g transform="translate(34.025 61.629673) scale(0.1 -0.1)">
       <use xlink:href="#DejaVuSans-31"/>
       <use xlink:href="#DejaVuSans-35" x="63.623047"/>
      </g>
     </g>
    </g>
    <g id="ytick_9">
     <g id="line2d_15">
      <g>
       <use xlink:href="#mabdb6bfdba" x="50.25" y="24.237273" style="stroke: #000000; stroke-width: 0.8"/>
      </g>
     </g>
     <g id="text_16">
      <!-- 20 -->
      <g transform="translate(34.025 28.036491) scale(0.1 -0.1)">
       <use xlink:href="#DejaVuSans-32"/>
       <use xlink:href="#DejaVuSans-30" x="63.623047"/>
      </g>
     </g>
    </g>
    <g id="text_17">
     <!-- Velocidade da Partícula -->
     <g transform="translate(19.149688 228.4875) rotate(-90) scale(0.12 -0.12)">
      <defs>
       <path id="DejaVuSans-56" d="M 1831 0 
L 50 4666 
L 709 4666 
L 2188 738 
L 3669 4666 
L 4325 4666 
L 2547 0 
L 1831 0 
z
" transform="scale(0.015625)"/>
       <path id="DejaVuSans-6c" d="M 603 4863 
L 1178 4863 
L 1178 0 
L 603 0 
L 603 4863 
z
" transform="scale(0.015625)"/>
       <path id="DejaVuSans-63" d="M 3122 3366 
L 3122 2828 
Q 2878 2963 2633 3030 
Q 2388 3097 2138 3097 
Q 1578 3097 1268 2742 
Q 959 2388 959 1747 
Q 959 1106 1268 751 
Q 1578 397 2138 397 
Q 2388 397 2633 464 
Q 2878 531 3122 666 
L 3122 134 
Q 2881 22 2623 -34 
Q 2366 -91 2075 -91 
Q 1284 -91 818 406 
Q 353 903 353 1747 
Q 353 2603 823 3093 
Q 1294 3584 2113 3584 
Q 2378 3584 2631 3529 
Q 2884 3475 3122 3366 
z
" transform="scale(0.015625)"/>
       <path id="DejaVuSans-69" d="M 603 3500 
L 1178 3500 
L 1178 0 
L 603 0 
L 603 3500 
z
M 603 4863 
L 1178 4863 
L 1178 4134 
L 603 4134 
L 603 4863 
z
" transform="scale(0.015625)"/>
       <path id="DejaVuSans-64" d="M 2906 2969 
L 2906 4863 
L 3481 4863 
L 3481 0 
L 2906 0 
L 2906 525 
Q 2725 213 2448 61 
Q 2172 -91 1784 -91 
Q 1150 -91 751 415 
Q 353 922 353 1747 
Q 353 2572 751 3078 
Q 1150 3584 1784 3584 
Q 2172 3584 2448 3432 
Q 2725 3281 2906 2969 
z
M 947 1747 
Q 947 1113 1208 752 
Q 1469 391 1925 391 
Q 2381 391 2643 752 
Q 2906 1113 2906 1747 
Q 2906 2381 2643 2742 
Q 2381 3103 1925 3103 
Q 1469 3103 1208 2742 
Q 947 2381 947 1747 
z
" transform="scale(0.015625)"/>
       <path id="DejaVuSans-20" transform="scale(0.015625)"/>
       <path id="DejaVuSans-50" d="M 1259 4147 
L 1259 2394 
L 2053 2394 
Q 2494 2394 2734 2622 
Q 2975 2850 2975 3272 
Q 2975 3691 2734 3919 
Q 2494 4147 2053 4147 
L 1259 4147 
z
M 628 4666 
L 2053 4666 
Q 2838 4666 3239 4311 
Q 3641 3956 3641 3272 
Q 3641 2581 3239 2228 
Q 2838 1875 2053 1875 
L 1259 1875 
L 1259 0 
L 628 0 
L 628 4666 
z
" transform="scale(0.015625)"/>
       <path id="DejaVuSans-ed" d="M 1325 5119 
L 1947 5119 
L 928 3944 
L 450 3944 
L 1325 5119 
z
M 603 3500 
L 1178 3500 
L 1178 0 
L 603 0 
L 603 3500 
z
M 891 3584 
L 891 3584 
z
" transform="scale(0.015625)"/>
       <path id="DejaVuSans-75" d="M 544 1381 
L 544 3500 
L 1119 3500 
L 1119 1403 
Q 1119 906 1312 657 
Q 1506 409 1894 409 
Q 2359 409 2629 706 
Q 2900 1003 2900 1516 
L 2900 3500 
L 3475 3500 
L 3475 0 
L 2900 0 
L 2900 538 
Q 2691 219 2414 64 
Q 2138 -91 1772 -91 
Q 1169 -91 856 284 
Q 544 659 544 1381 
z
M 1991 3584 
L 1991 3584 
z
" transform="scale(0.015625)"/>
      </defs>
      <use xlink:href="#DejaVuSans-56"/>
      <use xlink:href="#DejaVuSans-65" x="60.658203"/>
      <use xlink:href="#DejaVuSans-6c" x="122.181641"/>
      <use xlink:href="#DejaVuSans-6f" x="149.964844"/>
      <use xlink:href="#DejaVuSans-63" x="211.146484"/>
      <use xlink:href="#DejaVuSans-69" x="266.126953"/>
      <use xlink:href="#DejaVuSans-64" x="293.910156"/>
      <use xlink:href="#DejaVuSans-61" x="357.386719"/>
      <use xlink:href="#DejaVuSans-64" x="418.666016"/>
      <use xlink:href="#DejaVuSans-65" x="482.142578"/>
      <use xlink:href="#DejaVuSans-20" x="543.666016"/>
      <use xlink:href="#DejaVuSans-64" x="575.453125"/>
      <use xlink:href="#DejaVuSans-61" x="638.929688"/>
      <use xlink:href="#DejaVuSans-20" x="700.208984"/>
      <use xlink:href="#DejaVuSans-50" x="731.996094"/>
      <use xlink:href="#DejaVuSans-61" x="787.798828"/>
      <use xlink:href="#DejaVuSans-72" x="849.078125"/>
      <use xlink:href="#DejaVuSans-74" x="890.191406"/>
      <use xlink:href="#DejaVuSans-ed" x="929.400391"/>
      <use xlink:href="#DejaVuSans-63" x="957.183594"/>
      <use xlink:href="#DejaVuSans-75" x="1012.164062"/>
      <use xlink:href="#DejaVuSans-6c" x="1075.542969"/>
      <use xlink:href="#DejaVuSans-61" x="1103.326172"/>
     </g>
    </g>
   </g>
   <g id="line2d_16">
    <path d="M 50.25 278.618228 
L 58.1172 205.763048 
L 65.9844 164.027375 
L 73.8516 80.744796 
L 81.7188 49.477739 
L 89.586 132.276417 
L 97.4532 138.195309 
L 105.3204 289.381396 
L 113.1876 290.825973 
L 121.0548 194.780585 
L 128.922 117.363669 
L 136.7892 56.533777 
L 144.6564 80.226459 
L 152.5236 142.630636 
L 160.3908 292.982727 
L 168.258 292.982727 
L 176.1252 210.900742 
L 183.9924 68.03977 
L 191.8596 54.971629 
L 199.7268 139.694947 
L 207.594 199.238481 
L 215.4612 284.051568 
L 223.3284 229.615965 
L 231.1956 88.615864 
L 239.0628 58.849096 
L 246.93 118.628237 
L 254.7972 141.890113 
L 262.6644 292.982727 
L 270.5316 281.892856 
L 278.3988 243.122125 
L 286.266 205.808831 
L 294.1332 185.649964 
L 302.0004 24.237273 
L 309.8676 67.108465 
L 317.7348 144.568314 
L 325.602 288.692845 
L 333.4692 292.982727 
L 341.3364 195.30345 
L 349.2036 85.954051 
L 357.0708 46.01209 
L 364.938 154.538474 
L 372.8052 284.728719 
L 380.6724 243.011804 
L 388.5396 187.601475 
L 396.4068 169.319046 
L 404.274 106.372402 
L 412.1412 24.237273 
L 420.0084 133.268028 
L 427.8756 292.982727 
L 435.7428 279.192567 
" clip-path="url(#p01a5279352)" style="fill: none; stroke-dasharray: 1.5,2.475; stroke-dashoffset: 0; stroke: #000000; stroke-width: 1.5"/>
    <defs>
     <path id="m99336999e1" d="M 0 1.5 
C 0.397805 1.5 0.77937 1.341951 1.06066 1.06066 
C 1.341951 0.77937 1.5 0.397805 1.5 0 
C 1.5 -0.397805 1.341951 -0.77937 1.06066 -1.06066 
C 0.77937 -1.341951 0.397805 -1.5 0 -1.5 
C -0.397805 -1.5 -0.77937 -1.341951 -1.06066 -1.06066 
C -1.341951 -0.77937 -1.5 -0.397805 -1.5 0 
C -1.5 0.397805 -1.341951 0.77937 -1.06066 1.06066 
C -0.77937 1.341951 -0.397805 1.5 0 1.5 
z
" style="stroke: #000000"/>
    </defs>
    <g clip-path="url(#p01a5279352)">
     <use xlink:href="#m99336999e1" x="50.25" y="278.618228" style="stroke: #000000"/>
     <use xlink:href="#m99336999e1" x="58.1172" y="205.763048" style="stroke: #000000"/>
     <use xlink:href="#m99336999e1" x="65.9844" y="164.027375" style="stroke: #000000"/>
     <use xlink:href="#m99336999e1" x="73.8516" y="80.744796" style="stroke: #000000"/>
     <use xlink:href="#m99336999e1" x="81.7188" y="49.477739" style="stroke: #000000"/>
     <use xlink:href="#m99336999e1" x="89.586" y="132.276417" style="stroke: #000000"/>
     <use xlink:href="#m99336999e1" x="97.4532" y="138.195309" style="stroke: #000000"/>
     <use xlink:href="#m99336999e1" x="105.3204" y="289.381396" style="stroke: #000000"/>
     <use xlink:href="#m99336999e1" x="113.1876" y="290.825973" style="stroke: #000000"/>
     <use xlink:href="#m99336999e1" x="121.0548" y="194.780585" style="stroke: #000000"/>
     <use xlink:href="#m99336999e1" x="128.922" y="117.363669" style="stroke: #000000"/>
     <use xlink:href="#m99336999e1" x="136.7892" y="56.533777" style="stroke: #000000"/>
     <use xlink:href="#m99336999e1" x="144.6564" y="80.226459" style="stroke: #000000"/>
     <use xlink:href="#m99336999e1" x="152.5236" y="142.630636" style="stroke: #000000"/>
     <use xlink:href="#m99336999e1" x="160.3908" y="292.982727" style="stroke: #000000"/>
     <use xlink:href="#m99336999e1" x="168.258" y="292.982727" style="stroke: #000000"/>
     <use xlink:href="#m99336999e1" x="176.1252" y="210.900742" style="stroke: #000000"/>
     <use xlink:href="#m99336999e1" x="183.9924" y="68.03977" style="stroke: #000000"/>
     <use xlink:href="#m99336999e1" x="191.8596" y="54.971629" style="stroke: #000000"/>
     <use xlink:href="#m99336999e1" x="199.7268" y="139.694947" style="stroke: #000000"/>
     <use xlink:href="#m99336999e1" x="207.594" y="199.238481" style="stroke: #000000"/>
     <use xlink:href="#m99336999e1" x="215.4612" y="284.051568" style="stroke: #000000"/>
     <use xlink:href="#m99336999e1" x="223.3284" y="229.615965" style="stroke: #000000"/>
     <use xlink:href="#m99336999e1" x="231.1956" y="88.615864" style="stroke: #000000"/>
     <use xlink:href="#m99336999e1" x="239.0628" y="58.849096" style="stroke: #000000"/>
     <use xlink:href="#m99336999e1" x="246.93" y="118.628237" style="stroke: #000000"/>
     <use xlink:href="#m99336999e1" x="254.7972" y="141.890113" style="stroke: #000000"/>
     <use xlink:href="#m99336999e1" x="262.6644" y="292.982727" style="stroke: #000000"/>
     <use xlink:href="#m99336999e1" x="270.5316" y="281.892856" style="stroke: #000000"/>
     <use xlink:href="#m99336999e1" x="278.3988" y="243.122125" style="stroke: #000000"/>
     <use xlink:href="#m99336999e1" x="286.266" y="205.808831" style="stroke: #000000"/>
     <use xlink:href="#m99336999e1" x="294.1332" y="185.649964" style="stroke: #000000"/>
     <use xlink:href="#m99336999e1" x="302.0004" y="24.237273" style="stroke: #000000"/>
     <use xlink:href="#m99336999e1" x="309.8676" y="67.108465" style="stroke: #000000"/>
     <use xlink:href="#m99336999e1" x="317.7348" y="144.568314" style="stroke: #000000"/>
     <use xlink:href="#m99336999e1" x="325.602" y="288.692845" style="stroke: #000000"/>
     <use xlink:href="#m99336999e1" x="333.4692" y="292.982727" style="stroke: #000000"/>
     <use xlink:href="#m99336999e1" x="341.3364" y="195.30345" style="stroke: #000000"/>
     <use xlink:href="#m99336999e1" x="349.2036" y="85.954051" style="stroke: #000000"/>
     <use xlink:href="#m99336999e1" x="357.0708" y="46.01209" style="stroke: #000000"/>
     <use xlink:href="#m99336999e1" x="364.938" y="154.538474" style="stroke: #000000"/>
     <use xlink:href="#m99336999e1" x="372.8052" y="284.728719" style="stroke: #000000"/>
     <use xlink:href="#m99336999e1" x="380.6724" y="243.011804" style="stroke: #000000"/>
     <use xlink:href="#m99336999e1" x="388.5396" y="187.601475" style="stroke: #000000"/>
     <use xlink:href="#m99336999e1" x="396.4068" y="169.319046" style="stroke: #000000"/>
     <use xlink:href="#m99336999e1" x="404.274" y="106.372402" style="stroke: #000000"/>
     <use xlink:href="#m99336999e1" x="412.1412" y="24.237273" style="stroke: #000000"/>
     <use xlink:href="#m99336999e1" x="420.0084" y="133.268028" style="stroke: #000000"/>
     <use xlink:href="#m99336999e1" x="427.8756" y="292.982727" style="stroke: #000000"/>
     <use xlink:href="#m99336999e1" x="435.7428" y="279.192567" style="stroke: #000000"/>
    </g>
   </g>
   <g id="line2d_17">
    <path d="M 50.25 157.080184 
L 58.1172 292.982727 
L 65.9844 229.566356 
L 73.8516 252.997831 
L 81.7188 292.982727 
L 89.586 262.577834 
L 97.4532 251.596047 
L 105.3204 270.960266 
L 113.1876 228.087974 
L 121.0548 206.082747 
L 128.922 292.982727 
L 136.7892 230.55036 
L 144.6564 207.308455 
L 152.5236 220.310696 
L 160.3908 272.346932 
L 168.258 199.701213 
L 176.1252 188.447474 
L 183.9924 229.653284 
L 191.8596 223.546455 
L 199.7268 199.103185 
L 207.594 167.888346 
L 215.4612 239.331202 
L 223.3284 181.811437 
L 231.1956 179.287902 
L 239.0628 188.441958 
L 246.93 195.228298 
L 254.7972 186.957485 
L 262.6644 180.719963 
L 270.5316 177.888298 
L 278.3988 186.578272 
L 286.266 175.601523 
L 294.1332 163.906811 
L 302.0004 161.609361 
L 309.8676 176.665476 
L 317.7348 167.561402 
L 325.602 159.890765 
L 333.4692 160.699626 
L 341.3364 160.233463 
L 349.2036 159.666887 
L 357.0708 157.271147 
L 364.938 157.027229 
L 372.8052 154.54398 
L 380.6724 153.468212 
L 388.5396 151.395312 
L 396.4068 155.273492 
L 404.274 151.836351 
L 412.1412 150.970573 
L 420.0084 147.16474 
L 427.8756 150.519563 
L 435.7428 148.87631 
" clip-path="url(#p01a5279352)" style="fill: none; stroke: #000000; stroke-width: 1.5; stroke-linecap: square"/>
    <g clip-path="url(#p01a5279352)">
     <use xlink:href="#m99336999e1" x="50.25" y="157.080184" style="stroke: #000000"/>
     <use xlink:href="#m99336999e1" x="58.1172" y="292.982727" style="stroke: #000000"/>
     <use xlink:href="#m99336999e1" x="65.9844" y="229.566356" style="stroke: #000000"/>
     <use xlink:href="#m99336999e1" x="73.8516" y="252.997831" style="stroke: #000000"/>
     <use xlink:href="#m99336999e1" x="81.7188" y="292.982727" style="stroke: #000000"/>
     <use xlink:href="#m99336999e1" x="89.586" y="262.577834" style="stroke: #000000"/>
     <use xlink:href="#m99336999e1" x="97.4532" y="251.596047" style="stroke: #000000"/>
     <use xlink:href="#m99336999e1" x="105.3204" y="270.960266" style="stroke: #000000"/>
     <use xlink:href="#m99336999e1" x="113.1876" y="228.087974" style="stroke: #000000"/>
     <use xlink:href="#m99336999e1" x="121.0548" y="206.082747" style="stroke: #000000"/>
     <use xlink:href="#m99336999e1" x="128.922" y="292.982727" style="stroke: #000000"/>
     <use xlink:href="#m99336999e1" x="136.7892" y="230.55036" style="stroke: #000000"/>
     <use xlink:href="#m99336999e1" x="144.6564" y="207.308455" style="stroke: #000000"/>
     <use xlink:href="#m99336999e1" x="152.5236" y="220.310696" style="stroke: #000000"/>
     <use xlink:href="#m99336999e1" x="160.3908" y="272.346932" style="stroke: #000000"/>
     <use xlink:href="#m99336999e1" x="168.258" y="199.701213" style="stroke: #000000"/>
     <use xlink:href="#m99336999e1" x="176.1252" y="188.447474" style="stroke: #000000"/>
     <use xlink:href="#m99336999e1" x="183.9924" y="229.653284" style="stroke: #000000"/>
     <use xlink:href="#m99336999e1" x="191.8596" y="223.546455" style="stroke: #000000"/>
     <use xlink:href="#m99336999e1" x="199.7268" y="199.103185" style="stroke: #000000"/>
     <use xlink:href="#m99336999e1" x="207.594" y="167.888346" style="stroke: #000000"/>
     <use xlink:href="#m99336999e1" x="215.4612" y="239.331202" style="stroke: #000000"/>
     <use xlink:href="#m99336999e1" x="223.3284" y="181.811437" style="stroke: #000000"/>
     <use xlink:href="#m99336999e1" x="231.1956" y="179.287902" style="stroke: #000000"/>
     <use xlink:href="#m99336999e1" x="239.0628" y="188.441958" style="stroke: #000000"/>
     <use xlink:href="#m99336999e1" x="246.93" y="195.228298" style="stroke: #000000"/>
     <use xlink:href="#m99336999e1" x="254.7972" y="186.957485" style="stroke: #000000"/>
     <use xlink:href="#m99336999e1" x="262.6644" y="180.719963" style="stroke: #000000"/>
     <use xlink:href="#m99336999e1" x="270.5316" y="177.888298" style="stroke: #000000"/>
     <use xlink:href="#m99336999e1" x="278.3988" y="186.578272" style="stroke: #000000"/>
     <use xlink:href="#m99336999e1" x="286.266" y="175.601523" style="stroke: #000000"/>
     <use xlink:href="#m99336999e1" x="294.1332" y="163.906811" style="stroke: #000000"/>
     <use xlink:href="#m99336999e1" x="302.0004" y="161.609361" style="stroke: #000000"/>
     <use xlink:href="#m99336999e1" x="309.8676" y="176.665476" style="stroke: #000000"/>
     <use xlink:href="#m99336999e1" x="317.7348" y="167.561402" style="stroke: #000000"/>
     <use xlink:href="#m99336999e1" x="325.602" y="159.890765" style="stroke: #000000"/>
     <use xlink:href="#m99336999e1" x="333.4692" y="160.699626" style="stroke: #000000"/>
     <use xlink:href="#m99336999e1" x="341.3364" y="160.233463" style="stroke: #000000"/>
     <use xlink:href="#m99336999e1" x="349.2036" y="159.666887" style="stroke: #000000"/>
     <use xlink:href="#m99336999e1" x="357.0708" y="157.271147" style="stroke: #000000"/>
     <use xlink:href="#m99336999e1" x="364.938" y="157.027229" style="stroke: #000000"/>
     <use xlink:href="#m99336999e1" x="372.8052" y="154.54398" style="stroke: #000000"/>
     <use xlink:href="#m99336999e1" x="380.6724" y="153.468212" style="stroke: #000000"/>
     <use xlink:href="#m99336999e1" x="388.5396" y="151.395312" style="stroke: #000000"/>
     <use xlink:href="#m99336999e1" x="396.4068" y="155.273492" style="stroke: #000000"/>
     <use xlink:href="#m99336999e1" x="404.274" y="151.836351" style="stroke: #000000"/>
     <use xlink:href="#m99336999e1" x="412.1412" y="150.970573" style="stroke: #000000"/>
     <use xlink:href="#m99336999e1" x="420.0084" y="147.16474" style="stroke: #000000"/>
     <use xlink:href="#m99336999e1" x="427.8756" y="150.519563" style="stroke: #000000"/>
     <use xlink:href="#m99336999e1" x="435.7428" y="148.87631" style="stroke: #000000"/>
    </g>
   </g>
   <g id="patch_3">
    <path d="M 50.25 306.42 
L 50.25 10.8 
" style="fill: none; stroke: #000000; stroke-width: 0.8; stroke-linejoin: miter; stroke-linecap: square"/>
   </g>
   <g id="patch_4">
    <path d="M 443.61 306.42 
L 443.61 10.8 
" style="fill: none; stroke: #000000; stroke-width: 0.8; stroke-linejoin: miter; stroke-linecap: square"/>
   </g>
   <g id="patch_5">
    <path d="M 50.25 306.42 
L 443.61 306.42 
" style="fill: none; stroke: #000000; stroke-width: 0.8; stroke-linejoin: miter; stroke-linecap: square"/>
   </g>
   <g id="patch_6">
    <path d="M 50.25 10.8 
L 443.61 10.8 
" style="fill: none; stroke: #000000; stroke-width: 0.8; stroke-linejoin: miter; stroke-linecap: square"/>
   </g>
   <g id="legend_1">
    <g id="patch_7">
     <path d="M 57.25 48.15625 
L 115.251563 48.15625 
Q 117.251563 48.15625 117.251563 46.15625 
L 117.251563 17.8 
Q 117.251563 15.8 115.251563 15.8 
L 57.25 15.8 
Q 55.25 15.8 55.25 17.8 
L 55.25 46.15625 
Q 55.25 48.15625 57.25 48.15625 
z
" style="fill: #ffffff; stroke: #cccccc; stroke-linejoin: miter"/>
    </g>
    <g id="line2d_18">
     <path d="M 59.25 23.898438 
L 69.25 23.898438 
L 79.25 23.898438 
" style="fill: none; stroke-dasharray: 1.5,2.475; stroke-dashoffset: 0; stroke: #000000; stroke-width: 1.5"/>
     <g>
      <use xlink:href="#m99336999e1" x="69.25" y="23.898438" style="stroke: #000000"/>
     </g>
    </g>
    <g id="text_18">
     <!-- PSO -->
     <g transform="translate(87.25 27.398438) scale(0.1 -0.1)">
      <defs>
       <path id="DejaVuSans-53" d="M 3425 4513 
L 3425 3897 
Q 3066 4069 2747 4153 
Q 2428 4238 2131 4238 
Q 1616 4238 1336 4038 
Q 1056 3838 1056 3469 
Q 1056 3159 1242 3001 
Q 1428 2844 1947 2747 
L 2328 2669 
Q 3034 2534 3370 2195 
Q 3706 1856 3706 1288 
Q 3706 609 3251 259 
Q 2797 -91 1919 -91 
Q 1588 -91 1214 -16 
Q 841 59 441 206 
L 441 856 
Q 825 641 1194 531 
Q 1563 422 1919 422 
Q 2459 422 2753 634 
Q 3047 847 3047 1241 
Q 3047 1584 2836 1778 
Q 2625 1972 2144 2069 
L 1759 2144 
Q 1053 2284 737 2584 
Q 422 2884 422 3419 
Q 422 4038 858 4394 
Q 1294 4750 2059 4750 
Q 2388 4750 2728 4690 
Q 3069 4631 3425 4513 
z
" transform="scale(0.015625)"/>
       <path id="DejaVuSans-4f" d="M 2522 4238 
Q 1834 4238 1429 3725 
Q 1025 3213 1025 2328 
Q 1025 1447 1429 934 
Q 1834 422 2522 422 
Q 3209 422 3611 934 
Q 4013 1447 4013 2328 
Q 4013 3213 3611 3725 
Q 3209 4238 2522 4238 
z
M 2522 4750 
Q 3503 4750 4090 4092 
Q 4678 3434 4678 2328 
Q 4678 1225 4090 567 
Q 3503 -91 2522 -91 
Q 1538 -91 948 565 
Q 359 1222 359 2328 
Q 359 3434 948 4092 
Q 1538 4750 2522 4750 
z
" transform="scale(0.015625)"/>
      </defs>
      <use xlink:href="#DejaVuSans-50"/>
      <use xlink:href="#DejaVuSans-53" x="60.302734"/>
      <use xlink:href="#DejaVuSans-4f" x="123.779297"/>
     </g>
    </g>
    <g id="line2d_19">
     <path d="M 59.25 38.576563 
L 69.25 38.576563 
L 79.25 38.576563 
" style="fill: none; stroke: #000000; stroke-width: 1.5; stroke-linecap: square"/>
     <g>
      <use xlink:href="#m99336999e1" x="69.25" y="38.576563" style="stroke: #000000"/>
     </g>
    </g>
    <g id="text_19">
     <!-- FPSO -->
     <g transform="translate(87.25 42.076563) scale(0.1 -0.1)">
      <defs>
       <path id="DejaVuSans-46" d="M 628 4666 
L 3309 4666 
L 3309 4134 
L 1259 4134 
L 1259 2759 
L 3109 2759 
L 3109 2228 
L 1259 2228 
L 1259 0 
L 628 0 
L 628 4666 
z
" transform="scale(0.015625)"/>
      </defs>
      <use xlink:href="#DejaVuSans-46"/>
      <use xlink:href="#DejaVuSans-50" x="57.519531"/>
      <use xlink:href="#DejaVuSans-53" x="117.822266"/>
      <use xlink:href="#DejaVuSans-4f" x="181.298828"/>
     </g>
    </g>
   </g>
  </g>
 </g>
 <defs>
  <clipPath id="p01a5279352">
   <rect x="50.25" y="10.8" width="393.36" height="295.62"/>
  </clipPath>
 </defs>
</svg>
